# xmcd
#
# Track frame offsets:
#	150
#	17706
#	48432
#	70512
#	97849
#	111091
#	127563
#	143867
#	178658
#	216234
#	242044
#	254020
#	288473
#	307320
#	328553
#
# Disc length: 4517 seconds
#
# Revision: 0
# Processed by: cddbd v1.5.2PL0 Copyright (c) Steve Scherf et al.
# Submitted via: EasyCDDAExtractor 16.0.6.1
#
DISCID=d811a30f
DTITLE=Σόλων Λέκκας 
DYEAR=2011
DGENRE=
TTITLE0=Π(Η)ΓΙΑΝΟ
TTITLE1=ΣΑΝ ΠΕΘΑΝΩ ΠΑΡΑΓΓΕΛΝΩ
TTITLE2=ΜΎΓΔΑΛΑΚΙ
TTITLE3=ΤΑ ΣΕΝΤΟΝΑΚΙΑ
TTITLE4=ΧΑΡΜΑΝΤΑΛΗΣ
TTITLE5=ΕΙΜ’ ΟΡΦΑΝΟΣ
TTITLE6=ΟΠΟΥ ΙΔΕΙΣ ΔΥΟ ΚΥΠΑΡΙΣΣΙΑ 
TTITLE7=ΣΥΛΗΒΡΙΑΝΟΣ ΣΎΡΤΟΣ ΚΑΙ ΜΠΑΛΛΟΣ
TTITLE8=ΜΑΝΕΣ ΟΎΣΑΚ
TTITLE9=ΠΕΡΓΑΜΟΣ
TTITLE10=ΔΥΟ ΨΑΡΑΚΙΑ ΜΕΛΑΝΟΥΡΙΑ
TTITLE11=ΣΕ ΚΑΙΝΟΥΡΓΙΑ ΒΑΡΚΑ ΜΠΗΚΑ 
TTITLE12=ΤΗΣ ΤΡΙΑΝΤΑΦΥΛΛΙΑΣ ΤΑ ΦΥΛΛΑ 
TTITLE13=ΝΤΑΛΕ-ΝΤΑΛΕ 
TTITLE14=ΚΙΡΚ ΑΓΑΤΣ ΖΕΪΜΠΕΚΙΚΟ
EXTD=
EXTT0=
EXTT1=
EXTT2=
EXTT3=
EXTT4=
EXTT5=
EXTT6=
EXTT7=
EXTT8=
EXTT9=
EXTT10=
EXTT11=
EXTT12=
EXTT13=
EXTT14=
PLAYORDER=
